<svg width="60" height="60" viewBox="0 0 60 60" fill="none" xmlns="http://www.w3.org/2000/svg"><path d="M11.4854 51.0801C11.2715 51.0838 11.0674 51.1703 10.9162 51.3216C10.7649 51.4728 10.6784 51.6768 10.6747 51.8906V55.1895C10.6784 55.4033 10.7649 55.6074 10.9162 55.7586C11.0674 55.9098 11.2715 55.9963 11.4854 56H50.1274C50.3424 56 50.5486 55.9146 50.7006 55.7626C50.8526 55.6106 50.9381 55.4045 50.9381 55.1895V51.8906C50.9381 51.6757 50.8526 51.4695 50.7006 51.3175C50.5486 51.1655 50.3424 51.0801 50.1274 51.0801H11.4854ZM49.274 54.4217H12.296V52.7011H49.274V54.4217Z" fill="#0A7EBF"/><path d="M45.3487 21.4329C45.1403 21.4193 44.9313 21.4193 44.7229 21.4329C44.6155 19.1854 43.8962 17.0098 42.6428 15.141C41.3894 13.2722 39.6494 11.7811 37.6105 10.8284C35.5716 9.87577 33.3112 9.49781 31.0733 9.73531C28.8353 9.97281 26.7047 10.8168 24.9112 12.1761C22.7352 6.9434 19.4783 4 15.937 4C14.9463 4.03152 13.9719 4.26029 13.0708 4.67291C12.1697 5.08554 11.3599 5.67373 10.6889 6.40306C7.17601 9.87257 5 16.6836 5 24.2056C5 34.9839 9.38047 43.615 15.1974 44.3828V51.4925C15.1974 51.7037 15.2813 51.9062 15.4307 52.0555C15.58 52.2049 15.7826 52.2888 15.9938 52.2888C16.2051 52.2888 16.4077 52.2049 16.557 52.0555C16.7064 51.9062 16.7903 51.7037 16.7903 51.4925V44.326C20.8294 43.7856 24.3139 39.335 25.9352 32.6377C27.5629 33.603 29.3844 34.1955 31.2686 34.3724V51.4356C31.2686 51.6468 31.3525 51.8493 31.5019 51.9987C31.6512 52.148 31.8538 52.2319 32.0651 52.2319C32.2763 52.2319 32.4789 52.148 32.6282 51.9987C32.7776 51.8493 32.8615 51.6468 32.8615 51.4356V34.3724C34.1336 34.3031 35.3888 34.0493 36.5877 33.6188C37.174 35.315 38.2372 36.8062 39.6499 37.9134C41.0626 39.0206 42.7647 39.6969 44.5522 39.8611V51.4356C44.5522 51.6468 44.6362 51.8493 44.7855 51.9987C44.9349 52.148 45.1375 52.2319 45.3487 52.2319C45.5599 52.2319 45.7625 52.148 45.9119 51.9987C46.0612 51.8493 46.1451 51.6468 46.1451 51.4356V39.8753C48.5969 39.7697 50.9063 38.6947 52.5653 36.8867C54.2243 35.0787 55.097 32.6859 54.9914 30.2346C54.8858 27.7833 53.8105 25.4744 52.0022 23.8158C50.1938 22.1571 47.8005 21.2846 45.3487 21.3902V21.4329ZM46.1451 36.0219L49.8714 32.2964C49.9446 32.224 50.0024 32.1375 50.0415 32.0423C50.0806 31.947 50.1001 31.8448 50.0989 31.7419C50.1027 31.6386 50.0844 31.5356 50.0452 31.44C50.0059 31.3443 49.9467 31.2582 49.8714 31.1873C49.7221 31.0388 49.5202 30.9555 49.3096 30.9555C49.0991 30.9555 48.8971 31.0388 48.7478 31.1873L46.1451 33.8605V29.026C46.1451 28.8148 46.0612 28.6123 45.9119 28.4629C45.7625 28.3136 45.5599 28.2297 45.3487 28.2297C45.1375 28.2297 44.9349 28.3136 44.7855 28.4629C44.6362 28.6123 44.5522 28.8148 44.5522 29.026V33.8605L41.978 31.1873C41.8288 31.0388 41.6268 30.9555 41.4162 30.9555C41.2057 30.9555 41.0037 31.0388 40.8544 31.1873C40.7773 31.2575 40.7159 31.3432 40.6742 31.4387C40.6326 31.5343 40.6116 31.6376 40.6127 31.7419C40.6171 31.9513 40.704 32.1506 40.8544 32.2964L44.5665 36.0219V38.2827C42.6244 38.0788 40.8347 37.1375 39.5664 35.6529C38.2981 34.1684 37.648 32.2539 37.7502 30.3042C37.8523 28.3546 38.6989 26.5184 40.1154 25.1745C41.5319 23.8306 43.4102 23.0814 45.3629 23.0814C47.3157 23.0814 49.194 23.8306 50.6104 25.1745C52.0269 26.5184 52.8735 28.3546 52.9756 30.3042C53.0778 32.2539 52.4277 34.1684 51.1594 35.6529C49.8911 37.1375 48.1014 38.0788 46.1594 38.2827L46.1451 36.0219ZM15.9938 27.3623C15.8882 27.3583 15.7828 27.3762 15.6844 27.4148C15.586 27.4534 15.4966 27.5119 15.4218 27.5867C15.347 27.6614 15.2885 27.7508 15.2499 27.8492C15.2113 27.9476 15.1934 28.053 15.1974 28.1586V42.7192C10.3618 41.9229 6.66401 33.8605 6.66401 24.2341C6.66401 13.9677 10.9307 5.621 16.065 5.621C18.9094 5.621 21.7539 8.46486 23.6454 13.3136C22.4895 14.459 21.5744 15.824 20.954 17.3283C20.3336 18.8325 20.0205 20.4457 20.033 22.0727C20.0336 23.9215 20.4477 25.7467 21.245 27.4148C22.0423 29.0829 23.2026 30.5516 24.641 31.7134C23.2188 37.9984 20.2321 42.1931 16.8614 42.7476V28.1728C16.8687 28.0595 16.8508 27.946 16.8089 27.8405C16.7671 27.7349 16.7023 27.64 16.6193 27.5624C16.5364 27.4849 16.4372 27.4268 16.3291 27.3922C16.2209 27.3576 16.1064 27.3474 15.9938 27.3623ZM36.2891 32.1116C35.1876 32.475 34.0463 32.7042 32.8899 32.7941V29.5947L38.0953 24.4047C38.2275 24.2526 38.297 24.056 38.2899 23.8546C38.2828 23.6532 38.1996 23.462 38.0571 23.3196C37.9146 23.1771 37.7234 23.0939 37.5219 23.0868C37.3205 23.0798 37.1239 23.1493 36.9717 23.2814L32.8899 27.3623V19.9398C32.8899 19.7287 32.806 19.5261 32.6567 19.3768C32.5073 19.2275 32.3047 19.1436 32.0935 19.1436C31.8823 19.1436 31.6797 19.2275 31.5303 19.3768C31.381 19.5261 31.297 19.7287 31.297 19.9398V27.3623L27.2152 23.2672C27.0666 23.123 26.8677 23.0423 26.6606 23.0423C26.4535 23.0423 26.2545 23.123 26.1059 23.2672C26.0288 23.339 25.9673 23.426 25.9253 23.5226C25.8833 23.6192 25.8616 23.7234 25.8616 23.8288C25.8616 23.9342 25.8833 24.0384 25.9253 24.1351C25.9673 24.2317 26.0288 24.3186 26.1059 24.3905L31.3255 29.5947V32.7799C29.2567 32.5739 27.2913 31.7758 25.6647 30.4813C24.0382 29.1868 22.8195 27.4507 22.1549 25.4812C21.4902 23.5118 21.4078 21.3925 21.9174 19.3773C22.427 17.3622 23.5071 15.5368 25.0282 14.1198C26.5493 12.7029 28.4468 11.7546 30.4933 11.3886C32.5398 11.0226 34.6484 11.2544 36.5665 12.0563C38.4845 12.8581 40.1306 14.196 41.3074 15.9096C42.4841 17.6231 43.1417 19.6396 43.2011 21.7173C41.2094 22.2211 39.445 23.3797 38.1914 25.007C36.9378 26.6343 36.2678 28.6357 36.2891 30.6896C36.2623 31.1632 36.2623 31.638 36.2891 32.1116Z" fill="#0A7EBF"/></svg>