<svg width="48" height="48" viewBox="0 0 48 48" fill="none" xmlns="http://www.w3.org/2000/svg"><g clip-path="url(#clip0)"><path d="M24 0C19.2533 0 14.6131 1.40758 10.6663 4.04473C6.71955 6.68188 3.64341 10.4302 1.8269 14.8156C0.0103988 19.201 -0.464881 24.0266 0.461164 28.6822C1.38721 33.3377 3.67299 37.6141 7.02945 40.9706C10.3859 44.327 14.6623 46.6128 19.3178 47.5388C23.9734 48.4649 28.799 47.9896 33.1844 46.1731C37.5698 44.3566 41.3181 41.2805 43.9553 37.3337C46.5924 33.3869 48 28.7468 48 24C48 17.6348 45.4714 11.5303 40.9706 7.02944C36.4697 2.52856 30.3652 0 24 0V0ZM20.6832 34.176L18.912 39.36C15.6674 38.2308 12.8563 36.1169 10.8709 33.3133C8.88544 30.5096 7.82481 27.1561 7.83697 23.7206C7.84912 20.2852 8.93346 16.9392 10.9387 14.1497C12.9439 11.3601 15.7699 9.26618 19.0224 8.16L20.7936 13.3584C18.6423 14.0834 16.7765 15.4722 15.4646 17.325C14.1527 19.1777 13.4623 21.3988 13.4928 23.6688C13.3656 25.9678 14.0016 28.2445 15.302 30.1446C16.6023 32.0448 18.4941 33.4621 20.6832 34.176ZM28.8432 39.4848L27.2064 34.176C29.3833 33.4667 31.2814 32.0897 32.6314 30.2404C33.9813 28.3912 34.7144 26.1637 34.7266 23.8742C34.7388 21.5847 34.0295 19.3496 32.6994 17.486C31.3693 15.6225 29.486 14.2253 27.3168 13.4928L29.088 8.184C32.3888 9.27775 35.2581 11.3894 37.2839 14.2157C39.3096 17.042 40.3877 20.4375 40.3631 23.9147C40.3386 27.3919 39.2128 30.7719 37.1473 33.5694C35.0819 36.3668 32.1831 38.4377 28.8672 39.4848H28.8432Z" fill="#00BEF0"/></g><defs><clipPath id="clip0"><path fill="#fff" d="M0 0H48V48H0z"/></clipPath></defs></svg>