<svg width="64" height="20" viewBox="0 0 64 20" fill="none" xmlns="http://www.w3.org/2000/svg"><path d="M2.38769 0C1.82153 0 1.34153 0.450001 1.30461 1.025L0 20H61.6121C62.1784 20 62.6582 19.55 62.6951 18.975L64 0H2.38769Z" fill="#FACC00"/><path d="M20.6154 9.59999C20.5416 8.86249 20.3569 8.24999 20.0246 7.77501C19.6062 7.16251 18.9046 6.81249 17.9077 6.71248C17.7108 6.68748 17.5015 6.68748 17.28 6.68748C16.6892 6.68748 16.16 6.76249 15.6923 6.91249C15.1016 7.10001 14.6216 7.39998 14.24 7.81251C13.5877 8.50001 13.2185 9.51249 13.1323 10.85C12.96 13.3625 13.8831 14.7 16.0862 14.95C16.0985 14.95 16.1108 14.95 16.1231 14.95C16.16 14.95 16.1846 14.9625 16.2216 14.9625C16.4308 14.9875 16.6523 15 16.8862 15C16.8985 15 16.9108 15 16.9108 15C18.08 15 18.8677 14.8375 20.0615 14.4625L19.9754 13.575C19.9631 13.4 19.8646 13.2625 19.7292 13.175C19.6062 13.0875 19.4462 13.0625 19.2862 13.1125C18.5477 13.325 17.9815 13.55 17.2062 13.55C16.9846 13.55 16.7754 13.525 16.5908 13.5C15.36 13.3125 14.9785 12.5875 14.9661 11.3375H19.3477H20.5908C20.6523 10.6875 20.6646 10.125 20.6154 9.59999ZM18.5354 9.92501H15.8892H15.0769C15.3108 8.73748 16.0123 8.13749 17.1569 8.13749C17.1815 8.13749 17.2062 8.13749 17.2308 8.13749C18.2646 8.16249 18.7077 8.66248 18.8185 9.46249C18.8431 9.61249 18.8554 9.7625 18.8554 9.92501H18.5354ZM34.0923 9.44999L33.723 14.775H32.5046C32.1969 14.775 31.9385 14.5 31.9631 14.1875L32.2831 9.52499C32.3446 8.56251 32.0492 8.13749 31.0769 8.13749C30.6215 8.13749 30.0184 8.325 29.2677 8.72498C29.28 9.18751 29.28 9.43748 29.28 9.44999L28.9108 14.775H27.6923C27.3846 14.775 27.1261 14.5 27.1507 14.1875L27.4708 9.52499C27.5815 8.16249 26.8431 7.625 24.5169 8.69998L24.0985 14.7625H22.3015L22.8431 6.89999H24.3323C24.4677 6.89999 24.5661 7.025 24.5661 7.16251C24.5661 7.26251 24.6646 7.33748 24.7631 7.28748C25.6615 6.87499 26.4246 6.67498 27.0154 6.67498C27.9015 6.67498 28.5292 6.9625 28.9108 7.51249C30.0308 6.9625 30.9538 6.67498 31.6554 6.67498C33.5138 6.68748 34.2277 7.625 34.0923 9.44999ZM56.5415 13.9625C56.7507 14.325 56.4801 14.7875 56.0739 14.7875H54.794L52.8982 11.2625C52.7017 10.9 52.7262 10.475 52.9478 10.1375L55.0278 6.92499H56.0862C56.5292 6.92499 56.7753 7.42498 56.5292 7.78751L54.6339 10.525L56.5415 13.9625ZM52.517 6.17499L51.9262 14.775H50.1291L50.806 5H51.4459C52.0613 5 52.5539 5.53749 52.517 6.17499ZM39.4831 6.68748C38.7817 6.68748 37.8215 6.82499 36.5907 7.12501L36.6769 8.01248C36.7138 8.35 37.0461 8.57501 37.3661 8.48751C38.1538 8.26249 38.7817 8.14999 39.237 8.14999C40.3077 8.14999 40.6893 8.57501 40.6152 9.59999L40.5906 9.99998H38.9291C36.8738 9.99998 35.7908 10.85 35.68 12.5375C35.5692 14.075 36.3077 15 37.9815 15C38.6953 15 39.4831 14.8 40.3568 14.3625L40.4678 14.775H42.203L42.1293 13.9125L42.4245 9.56249C42.5478 7.75 41.7969 6.68748 39.4831 6.68748ZM40.3814 13.1375C39.7292 13.4375 39.1752 13.575 38.7322 13.575C37.8461 13.575 37.44 13.225 37.4892 12.5125C37.5384 11.775 38.0677 11.4125 39.0769 11.4125H40.5046L40.4801 11.725L40.3814 13.1375ZM12.1969 6.82499L12.1231 7.98748C12.1108 8.24999 11.9016 8.47501 11.6308 8.50001C10.917 8.57501 10.2154 8.66248 9.6 8.92499L9.2308 14.275C9.20616 14.5625 8.97232 14.7875 8.68927 14.7875H7.38464L7.92618 6.92499H9.32924C9.50157 6.92499 9.62465 7.075 9.61233 7.26248C9.61233 7.36248 9.72308 7.43749 9.80923 7.38748C10.6339 6.95 11.4708 6.87499 12.1969 6.82499ZM49.1567 6.82499L49.083 7.98748C49.0707 8.24999 48.8615 8.47501 48.5908 8.50001C47.8645 8.57501 47.1139 8.66248 46.4863 8.92499L46.1169 14.275C46.0924 14.5625 45.8586 14.7875 45.5753 14.7875H44.283L44.8247 6.92499H46.2275C46.3999 6.92499 46.5231 7.075 46.5108 7.26248C46.5108 7.36248 46.6214 7.43749 46.7078 7.38748C47.5324 6.95 48.4307 6.87499 49.1567 6.82499Z" fill="#081E2C"/></svg>