<svg width="48" height="48" viewBox="0 0 48 48" fill="none" xmlns="http://www.w3.org/2000/svg"><circle cx="24" cy="24" r="24" fill="#21A038"/><path d="M30.0689 15.1123L32.7909 13.1059C30.303 11.0911 27.1974 9.99441 23.996 10V10.0014C22.1586 9.99968 20.339 10.3607 18.6414 11.0637C17.0166 11.7365 15.5342 12.71 14.2718 13.9323C12.9758 15.1817 11.9325 16.6711 11.2009 18.3192C10.4075 20.1065 9.99837 22.0406 10 23.9961C10 23.9985 10 24.0008 10 24.0032C9.99863 25.8413 10.3602 27.6615 11.0638 29.3594C11.6997 30.8937 12.6035 32.3008 13.7317 33.5156C15.0214 34.9107 16.5825 36.0283 18.3201 36.7995C20.0831 37.5819 21.9889 37.9905 23.9172 37.9997C23.9449 37.9999 23.9727 38 24.0004 38C25.8385 38.0019 27.6588 37.6406 29.3567 36.9369C30.8403 36.322 32.2048 35.4563 33.3915 34.3794L33.3936 34.3818C34.8459 33.0706 36.0065 31.4689 36.8 29.6805C37.5936 27.892 38.0024 25.9567 38 24C38.0017 23.1589 37.9281 22.3192 37.7801 21.4912L34.7667 23.712V24C34.7675 25.5043 34.4522 26.992 33.8413 28.3666C33.303 29.5776 32.5459 30.6771 31.6095 31.6104L31.6081 31.6091C30.6104 32.6105 29.4248 33.4049 28.1192 33.9468C26.8137 34.4886 25.414 34.7673 24.0004 34.7666C23.8327 34.7666 23.6651 34.7628 23.4978 34.755C23.4937 34.7547 23.4895 34.7544 23.4853 34.7541C23.4775 34.7535 23.4696 34.7529 23.4618 34.7523L23.4618 34.7532C22.1419 34.6874 20.844 34.3786 19.6336 33.8407C18.4228 33.3026 17.3234 32.5457 16.3899 31.6097L16.3917 31.6079C15.3902 30.6104 14.5956 29.4247 14.0538 28.119C13.5119 26.8134 13.2334 25.4136 13.2343 24C13.2343 23.8197 13.2387 23.6404 13.2475 23.4623C13.3131 22.1423 13.6219 20.844 14.16 19.6334C14.6979 18.423 15.4545 17.3241 16.3902 16.3909L16.3915 16.3922C16.5141 16.2691 16.6396 16.1491 16.7678 16.0322C16.7721 16.0283 16.7765 16.0243 16.7809 16.0204C17.6924 15.1924 18.7408 14.5266 19.8806 14.0534C21.1864 13.5113 22.5864 13.2327 24.0002 13.2336C24.1805 13.2336 24.3597 13.2402 24.5378 13.249L24.5379 13.2464C26.5152 13.3441 28.4306 13.9883 30.0689 15.1123Z" fill="#fff"/><path d="M36.756 18.2237C36.3064 17.234 35.7434 16.2998 35.0784 15.44L24.0033 23.6053L18.6736 20.2642V24.2837L24.0033 27.6248L36.756 18.2237Z" fill="#fff"/></svg>