<svg width="18" height="18" viewBox="0 0 18 18" fill="none" xmlns="http://www.w3.org/2000/svg"><path d="M7.5 2.25V3.75H3.75V14.25H14.25V10.5H15.75V15C15.75 15.1989 15.671 15.3897 15.5303 15.5303C15.3897 15.671 15.1989 15.75 15 15.75H3C2.80109 15.75 2.61032 15.671 2.46967 15.5303C2.32902 15.3897 2.25 15.1989 2.25 15V3C2.25 2.80109 2.32902 2.61032 2.46967 2.46967C2.61032 2.32902 2.80109 2.25 3 2.25H7.5ZM13.1895 3.75H9.75V2.25H15.75V8.25H14.25V4.8105L9 10.0605L7.9395 9L13.1895 3.75Z" fill="#0A7EBF"/></svg>