<svg width="24" height="24" viewBox="0 0 24 24" fill="none" xmlns="http://www.w3.org/2000/svg"><path d="M22.4516 0H1.54839C0.693236 0 0 0.693236 0 1.54839V22.4516C0 23.3068 0.693236 24 1.54839 24H22.4516C23.3068 24 24 23.3068 24 22.4516V1.54839C24 0.693236 23.3068 0 22.4516 0Z" fill="#6695BD"/><path fill-rule="evenodd" clip-rule="evenodd" d="M13.1566 9.11225V11.6338C13.1538 11.6755 13.161 11.7172 13.1776 11.7555C13.1942 11.7938 13.2196 11.8276 13.2518 11.8542C13.2841 11.8807 13.3221 11.8992 13.3629 11.9082C13.4037 11.9171 13.446 11.9162 13.4864 11.9055C13.7186 11.8893 14.2435 9.7378 14.4765 9.26863C14.6002 9.0041 14.7989 8.78174 15.0479 8.62916C15.1264 8.5581 15.2265 8.51555 15.3321 8.50838H17.5602C17.6202 8.5187 17.6766 8.54408 17.7241 8.58214C17.7717 8.6202 17.8088 8.66972 17.832 8.72603C17.8552 8.78234 17.8638 8.84362 17.8568 8.90412C17.8499 8.96463 17.8278 9.02238 17.7924 9.07199C17.6182 9.45909 16.124 11.8668 16.0466 11.9644C15.9534 12.0903 15.8906 12.236 15.8631 12.3902C15.8936 12.5724 15.9777 12.7414 16.1047 12.8756C16.2595 13.0506 17.5106 14.4279 17.6275 14.544C17.7377 14.6705 17.8114 14.8247 17.8404 14.9899C17.8125 15.1308 17.7343 15.2567 17.6203 15.344C17.5063 15.4314 17.3644 15.4742 17.2211 15.4645C16.7364 15.4645 15.5442 15.4645 15.4079 15.4645C15.1356 15.3692 14.885 15.2205 14.6709 15.0271C14.4967 14.8723 13.851 14.1352 13.7542 14.0384C13.7215 13.9991 13.6796 13.9683 13.6323 13.9487C13.5849 13.9291 13.5335 13.9214 13.4825 13.9262C13.3663 13.9262 13.1457 13.9378 13.1558 14.3791C13.1835 14.6848 13.1194 14.9919 12.9715 15.2609C12.8959 15.3334 12.8064 15.3897 12.7082 15.4263C12.6101 15.4629 12.5055 15.4791 12.4009 15.4738C11.609 15.5218 10.8215 15.3253 10.1449 14.911C8.92637 14.1546 7.539 12.1332 6.89332 10.8434C6.50819 10.203 6.27022 9.48503 6.19658 8.74141C6.23529 8.60515 6.23525 8.50916 6.37151 8.50916C6.50777 8.50916 8.22109 8.50916 8.38444 8.50916C8.49755 8.5652 8.59196 8.65287 8.65619 8.76154C8.71426 8.83896 9.15707 10.1644 9.29255 10.3974C9.42803 10.6304 10.0961 11.9071 10.4585 11.9071C10.5788 11.8835 10.6849 11.8133 10.7536 11.7117C10.8224 11.6102 10.8482 11.4856 10.8254 11.3652C10.8254 11.0555 10.8254 9.83303 10.8254 9.67742C10.6779 9.33431 10.408 9.05835 10.0683 8.90323C10.153 8.79078 10.2609 8.69798 10.3848 8.63117C10.5087 8.56435 10.6455 8.52511 10.786 8.51613C11.2505 8.49677 12.4157 8.49676 12.6673 8.5347C12.8023 8.56104 12.9244 8.6326 13.0133 8.73758C13.1022 8.84256 13.1528 8.97471 13.1566 9.11225Z" fill="#fff"/></svg>