<svg width="24" height="24" viewBox="0 0 24 24" fill="none" xmlns="http://www.w3.org/2000/svg"><path d="M22.4516 0H1.54839C0.693236 0 0 0.693236 0 1.54839V22.4516C0 23.3068 0.693236 24 1.54839 24H22.4516C23.3068 24 24 23.3068 24 22.4516V1.54839C24 0.693236 23.3068 0 22.4516 0Z" fill="#65BC54"/><path fill-rule="evenodd" clip-rule="evenodd" d="M12 17.8064C10.9052 17.8037 9.83387 17.4895 8.91097 16.9006L6.19354 17.8064L7.09938 15.0883C6.41694 13.9992 6.1158 12.7141 6.24344 11.4353C6.37108 10.1564 6.92026 8.95619 7.80449 8.02348C8.68873 7.09076 9.85783 6.47843 11.1281 6.28277C12.3983 6.08711 13.6976 6.31924 14.8216 6.94264C15.9455 7.56603 16.8303 8.54533 17.3368 9.72652C17.8434 10.9077 17.943 12.2238 17.6199 13.4677C17.2968 14.7117 16.5694 15.813 15.5521 16.5984C14.5348 17.3838 13.2852 17.8087 12 17.8064ZM13.2619 12.8795C13.6481 13.0057 14.041 13.1104 14.4387 13.193C14.4806 13.1992 14.5207 13.2137 14.5568 13.2357C14.5928 13.2578 14.6241 13.2869 14.6487 13.3213C14.6733 13.3557 14.6907 13.3947 14.6998 13.436C14.709 13.4773 14.7097 13.52 14.7019 13.5615V13.7806C14.7058 13.8602 14.691 13.9396 14.6587 14.0124C14.6265 14.0853 14.5776 14.1496 14.5161 14.2003C14.3253 14.3939 14.0994 14.5495 13.8503 14.6586C13.4829 14.7024 13.1104 14.6701 12.756 14.5635C12.4017 14.457 12.0732 14.2785 11.7909 14.0392C11.4267 13.7953 11.0871 13.5165 10.7768 13.2069C10.4677 12.8948 10.1878 12.5551 9.94061 12.192C9.70338 11.9095 9.5267 11.5813 9.42149 11.2277C9.31628 10.8742 9.28486 10.5027 9.32906 10.1365C9.43833 9.88885 9.59326 9.66403 9.78581 9.47379C9.83487 9.41104 9.89872 9.36149 9.97171 9.3296C10.0447 9.2977 10.1245 9.28447 10.2039 9.29109H10.4284C10.513 9.27939 10.599 9.30175 10.6672 9.35327C10.7354 9.40479 10.7803 9.48126 10.7922 9.56591C10.9083 10.0242 10.9935 10.3556 11.1097 10.7272C11.1561 10.882 11.102 10.92 10.9781 11.0121C10.9007 11.0717 10.8387 11.1151 10.7768 11.1615C10.7409 11.1771 10.7087 11.2 10.6822 11.2288C10.6558 11.2577 10.6356 11.2917 10.6232 11.3288C10.6108 11.3659 10.6064 11.4052 10.6102 11.4441C10.614 11.4831 10.6258 11.5208 10.6452 11.5548C10.8429 11.9353 11.0959 12.2844 11.3961 12.5907C11.7019 12.8914 12.0518 13.1439 12.4336 13.3393C12.4678 13.3583 12.5054 13.37 12.5443 13.3737C12.5833 13.3773 12.6225 13.3729 12.6596 13.3606C12.6968 13.3483 12.731 13.3284 12.76 13.3022C12.7891 13.2761 12.8123 13.2441 12.8283 13.2085C12.8748 13.1458 12.9135 13.0877 12.9755 13.0064C12.9852 12.9787 13.0005 12.9531 13.0203 12.9314C13.0401 12.9096 13.064 12.892 13.0907 12.8796C13.1174 12.8673 13.1463 12.8605 13.1757 12.8595C13.2052 12.8585 13.2345 12.8635 13.2619 12.874V12.8795Z" fill="#fff"/></svg>