<svg width="32" height="32" viewBox="0 0 32 32" fill="none" xmlns="http://www.w3.org/2000/svg"><g fill="#0A7EBF"><path d="M14.0063 18.9976L19.2124 16L14.0063 13.0024V18.9976Z"/><path fill-rule="evenodd" clip-rule="evenodd" d="M16 32C24.8364 32 32 24.8367 32 16C32 7.16333 24.8364 0 16 0C7.16357 0 0 7.16333 0 16C0 24.8367 7.16357 32 16 32ZM25.5879 11.1907C25.3574 10.334 24.6816 9.65894 23.8252 9.42822C22.2603 9 16 9 16 9C16 9 9.73975 9 8.17432 9.41187C7.33447 9.64233 6.64258 10.3342 6.41162 11.1907C6 12.7551 6 16 6 16C6 16 6 19.261 6.41162 20.8093C6.64258 21.6658 7.31787 22.3411 8.1748 22.5718C9.75586 23 16 23 16 23C16 23 22.2603 23 23.8252 22.5881C24.6821 22.3577 25.3574 21.6824 25.5879 20.8259C26 19.261 26 16.0164 26 16.0164C26 16.0164 26.0166 12.7551 25.5879 11.1907Z"/></g></svg>