<svg width="32" height="32" viewBox="0 0 32 32" fill="none" xmlns="http://www.w3.org/2000/svg"><path fill-rule="evenodd" clip-rule="evenodd" d="M16 32C24.8364 32 32 24.8367 32 16C32 7.16333 24.8364 0 16 0C7.16357 0 0 7.16333 0 16C0 24.8367 7.16357 32 16 32ZM25.5464 20.0334C25.731 20.2925 25.7998 20.436 25.8218 20.4729C26.4844 21.5715 25.0869 21.658 25.0869 21.658L22.415 21.6953C22.415 21.6953 21.8413 21.8091 21.0864 21.2903C20.6914 21.019 20.3052 20.5764 19.9375 20.1545C19.375 19.5095 18.855 18.9133 18.4111 19.054C17.666 19.2903 17.6899 20.894 17.6899 20.894C17.6899 20.894 17.6929 21.0425 17.6465 21.1963C17.6221 21.2759 17.5845 21.3569 17.5264 21.4192C17.3423 21.6179 16.981 21.658 16.981 21.658H15.7861C15.7861 21.658 13.1484 21.8167 10.8242 19.3977C8.2915 16.7588 6.0542 11.5247 6.0542 11.5247C6.0542 11.5247 5.92529 11.1821 6.06543 11.0159C6.22266 10.8296 6.65137 10.8171 6.65137 10.8171L9.50928 10.7996C9.50928 10.7996 9.7793 10.8445 9.97168 10.9858C10.1304 11.1021 10.2192 11.3196 10.2192 11.3196C10.2192 11.3196 10.6816 12.4885 11.293 13.5447C12.4868 15.6086 13.0435 16.0601 13.4497 15.8386C14.041 15.5161 13.8633 12.9221 13.8633 12.9221C13.8633 12.9221 13.8745 11.9797 13.5659 11.5608C13.3271 11.2358 12.877 11.1409 12.6782 11.1145C12.5171 11.0933 12.7808 10.7195 13.1235 10.552C13.6372 10.3008 14.5459 10.2859 15.6187 10.2971C16.4546 10.3059 16.6948 10.3584 17.0225 10.437C17.7812 10.6199 17.7573 11.207 17.7065 12.4744C17.6914 12.8525 17.6738 13.291 17.6738 13.7974C17.6738 14.5024 17.5459 15.4961 18.0547 15.825C18.2739 15.9663 18.8101 15.8462 20.1489 13.5723C20.7837 12.4946 21.2603 11.2271 21.2603 11.2271C21.2603 11.2271 21.3638 11.0022 21.5254 10.9045C21.6914 10.8059 21.9141 10.8359 21.9141 10.8359L24.9189 10.8184C24.9189 10.8184 25.8232 10.7109 25.9692 11.1184C26.123 11.5459 25.6318 12.5459 24.4028 14.1836C23.2358 15.7388 22.6685 16.3101 22.7217 16.8162C22.7603 17.1853 23.1289 17.5195 23.8354 18.175C24.7788 19.0505 25.2817 19.6611 25.5464 20.0334Z" fill="#0A7EBF"/></svg>