<svg width="154" height="24" viewBox="0 0 154 24" fill="none" xmlns="http://www.w3.org/2000/svg"><path d="M43.768 16.864C43.768 17.1733 43.7093 17.936 43.592 19.152C43.4747 20.3787 43.4 21.0453 43.368 21.152H42.072C42.0613 20.864 42.008 20.2987 41.912 19.456C41.816 18.624 41.7413 18.1387 41.688 18H31.528V17.056L32.92 16.864V7.312L31.64 7.104V6.112H36.696V7.104L35.24 7.312V16.96H39.624V7.312L38.424 7.104V6.112H43.192V7.104L41.944 7.312V16.864H43.768ZM48.8614 18.176C47.4534 18.176 46.4027 17.7653 45.7094 16.944C45.0267 16.112 44.6854 14.9813 44.6854 13.552C44.6854 12.592 44.8614 11.76 45.2134 11.056C45.576 10.352 46.0827 9.81333 46.7334 9.44C47.384 9.06667 48.136 8.88 48.9894 8.88C50.056 8.88 50.8774 9.16267 51.4534 9.728C52.0294 10.2827 52.328 11.0773 52.3494 12.112C52.3494 12.816 52.3067 13.3387 52.2214 13.68H47.0214C47.064 14.6507 47.2934 15.408 47.7094 15.952C48.1254 16.4853 48.7174 16.752 49.4854 16.752C49.9014 16.752 50.328 16.6827 50.7654 16.544C51.2134 16.4053 51.5654 16.24 51.8214 16.048L52.2214 16.928C51.9334 17.2373 51.464 17.5253 50.8134 17.792C50.1734 18.048 49.5227 18.176 48.8614 18.176ZM50.1094 12.72C50.1307 12.4213 50.1414 12.192 50.1414 12.032C50.1414 10.6133 49.6667 9.904 48.7174 9.904C48.1947 9.904 47.7894 10.112 47.5014 10.528C47.2134 10.944 47.0534 11.6747 47.0214 12.72H50.1094ZM58.1542 9.104V10.048L56.9862 10.256V12.864H60.7622V10.256L59.5942 10.048V9.104H64.1382V10.048L63.0342 10.256V16.896L64.1542 17.04V18H59.5622V17.04L60.7622 16.896V13.92H56.9862V16.896L58.1702 17.04V18H53.5942V17.04L54.7302 16.896V10.256L53.5942 10.048V9.104H58.1542ZM74.6194 9.104L74.7634 12.752H73.3874L72.9074 10.224L71.2114 10.096V16.88L73.3234 17.04V18H66.8594V17.04L68.9394 16.88V10.096L67.1474 10.224L66.6834 12.752H65.3074L65.4354 9.104H74.6194ZM84.818 13.264C84.818 14.16 84.6313 14.9813 84.258 15.728C83.8953 16.4747 83.3567 17.072 82.642 17.52C81.938 17.9573 81.0953 18.176 80.114 18.176C79.9007 18.176 79.6767 18.1547 79.442 18.112C79.218 18.08 79.0367 18.0373 78.898 17.984L78.946 19.312V20.768L80.434 20.96V21.872H75.682V20.96L76.722 20.768V10.624L75.682 10.336V9.232L78.322 8.896H78.354L78.754 9.216V10.112C79.0207 9.78133 79.3833 9.49333 79.842 9.248C80.3007 9.00267 80.802 8.88 81.346 8.88C82.3593 8.88 83.1913 9.24267 83.842 9.968C84.4927 10.6827 84.818 11.7813 84.818 13.264ZM80.514 10.208C80.194 10.208 79.89 10.2773 79.602 10.416C79.314 10.5547 79.0953 10.7093 78.946 10.88V16.816C79.0207 16.9227 79.17 17.0133 79.394 17.088C79.6287 17.1627 79.8847 17.2 80.162 17.2C80.8553 17.2 81.4047 16.9013 81.81 16.304C82.226 15.696 82.434 14.7467 82.434 13.456C82.434 12.368 82.258 11.5573 81.906 11.024C81.554 10.48 81.09 10.208 80.514 10.208ZM85.9502 15.504C85.9502 14.5333 86.4356 13.8027 87.4062 13.312C88.3876 12.8213 89.6516 12.5707 91.1982 12.56V12.192C91.1982 11.7547 91.1502 11.4133 91.0542 11.168C90.9689 10.9227 90.8036 10.7413 90.5582 10.624C90.3236 10.496 89.9769 10.432 89.5182 10.432C88.9956 10.432 88.5262 10.5013 88.1102 10.64C87.6942 10.768 87.2622 10.9387 86.8142 11.152L86.3182 10.128C86.4782 9.98933 86.7449 9.824 87.1182 9.632C87.5022 9.44 87.9556 9.27467 88.4782 9.136C89.0009 8.98667 89.5396 8.912 90.0942 8.912C90.9156 8.912 91.5556 9.01867 92.0142 9.232C92.4836 9.44533 92.8196 9.78667 93.0222 10.256C93.2249 10.7253 93.3262 11.3547 93.3262 12.144V17.04H94.1902V17.936C93.9769 17.9893 93.6729 18.0427 93.2782 18.096C92.8836 18.1493 92.5369 18.176 92.2382 18.176C91.8756 18.176 91.6302 18.1227 91.5022 18.016C91.3849 17.9093 91.3262 17.6907 91.3262 17.36V16.928C91.0382 17.248 90.6649 17.536 90.2062 17.792C89.7476 18.048 89.2302 18.176 88.6542 18.176C88.1636 18.176 87.7102 18.0747 87.2942 17.872C86.8889 17.6587 86.5636 17.3547 86.3182 16.96C86.0729 16.5547 85.9502 16.0693 85.9502 15.504ZM89.6782 16.848C89.9022 16.848 90.1582 16.784 90.4462 16.656C90.7342 16.5173 90.9849 16.352 91.1982 16.16V13.536C90.2382 13.536 89.5182 13.7013 89.0382 14.032C88.5689 14.352 88.3342 14.768 88.3342 15.28C88.3342 15.792 88.4516 16.1813 88.6862 16.448C88.9316 16.7147 89.2622 16.848 89.6782 16.848ZM98.1007 11.024C98.1007 12.432 98.0154 13.6587 97.8447 14.704C97.6741 15.7493 97.4661 16.512 97.2207 16.992C97.0714 17.344 96.8634 17.6213 96.5967 17.824C96.3301 18.016 95.9621 18.112 95.4927 18.112C95.2367 18.112 94.9594 18.0747 94.6607 18L94.5327 16.544C94.7781 16.5973 95.1247 16.624 95.5727 16.624C95.8501 16.624 96.0901 16.3573 96.2927 15.824C96.5061 15.2907 96.6714 14.544 96.7887 13.584C96.9167 12.6133 96.9807 11.504 96.9807 10.256L95.5247 10.048V9.104H104.165V10.064L102.773 10.288V16.896L104.101 17.04V18H99.2847V17.04L100.517 16.896V10.224H98.1007V11.024ZM108.642 12.576C109.015 12.576 109.314 12.5707 109.538 12.56L110.498 12.544C111.692 12.544 112.583 12.7733 113.17 13.232C113.756 13.68 114.05 14.336 114.05 15.2C114.05 16.192 113.719 16.9333 113.058 17.424C112.407 17.904 111.463 18.144 110.226 18.144C110.087 18.144 109.644 18.1227 108.898 18.08C108.236 18.0267 107.735 18 107.394 18H105.17V17.072L106.418 16.896V10.256L105.218 10.064V9.104H110.05V10.064L108.642 10.256V12.576ZM108.642 17.056C108.94 17.12 109.298 17.152 109.714 17.152C111.047 17.152 111.714 16.56 111.714 15.376C111.714 14.192 111.09 13.6 109.842 13.6C109.276 13.6 108.876 13.6053 108.642 13.616V17.056ZM119.56 9.104V10.048L118.392 10.256V12.864H122.168V10.256L121 10.048V9.104H125.544V10.048L124.44 10.256V16.896L125.56 17.04V18H120.968V17.04L122.168 16.896V13.92H118.392V16.896L119.576 17.04V18H115V17.04L116.136 16.896V10.256L115 10.048V9.104H119.56ZM130.314 12.576C131.018 12.5547 131.578 12.544 131.994 12.544C133.188 12.544 134.079 12.7733 134.666 13.232C135.252 13.68 135.546 14.336 135.546 15.2C135.546 16.192 135.215 16.9333 134.554 17.424C133.892 17.904 132.943 18.144 131.706 18.144C131.556 18.144 131.108 18.1227 130.362 18.08C129.7 18.0267 129.204 18 128.874 18H126.826V17.072L128.09 16.896V10.272L126.858 10.048V9.104H131.658V10.08L130.314 10.272V12.576ZM140.234 9.104V10.064L139.226 10.256V16.896L140.362 17.04V18H135.978V17.04L137.018 16.88V10.256L135.93 10.064V9.104H140.234ZM130.314 17.088C130.356 17.088 130.458 17.0987 130.618 17.12C130.788 17.1413 130.986 17.152 131.21 17.152C132.543 17.152 133.21 16.56 133.21 15.376C133.21 14.192 132.58 13.6 131.322 13.6H130.314V17.088ZM146.312 9.104V10.048L145.08 10.256V15.088L145.976 13.904L149.08 10.592V10.256L148.008 10.048V9.104H152.44V10.048L151.352 10.256V16.896L152.488 17.04V18H147.88V17.04L149.08 16.896V11.984L148.152 13.312L145.08 16.56V16.928L146.136 17.04V18H141.704V17.04L142.824 16.896V10.256L141.736 10.048V9.104H146.312ZM145.368 4.48C145.538 4.48 145.624 4.70933 145.624 5.168C145.624 5.616 145.746 5.99467 145.992 6.304C146.237 6.61333 146.605 6.768 147.096 6.768C147.586 6.768 147.949 6.61333 148.184 6.304C148.418 5.99467 148.536 5.616 148.536 5.168C148.536 4.70933 148.621 4.48 148.792 4.48H150.312C150.322 4.544 150.328 4.672 150.328 4.864C150.328 5.71733 150.04 6.40533 149.464 6.928C148.898 7.44 148.104 7.696 147.08 7.696C146.088 7.696 145.298 7.43467 144.712 6.912C144.125 6.38933 143.832 5.70667 143.832 4.864L143.848 4.48H145.368Z" fill="#2F3329"/><path d="M0 0H11.9063C18.5337 0 23.9063 5.39607 23.9063 12.0235C23.9063 18.625 18.5547 24 11.9531 24C5.3516 24 0 18.6484 0 12.0469V0Z" fill="#5C8939"/><path fill-rule="evenodd" clip-rule="evenodd" d="M11.9063 0H0V12.0469C0 16.3845 2.31045 20.1825 5.76781 22.2773L22.1754 5.8053C20.0721 2.32866 16.26 0 11.9063 0Z" fill="#67A735"/><path fill-rule="evenodd" clip-rule="evenodd" d="M14.206 0.221055C13.4617 0.0760057 12.6928 0 11.9063 0H0V12.0469C0 12.8082 0.0711782 13.5529 0.207243 14.2747L14.206 0.221055Z" fill="#80BD32"/></svg>