<svg width="24" height="24" viewBox="0 0 24 24" fill="none" xmlns="http://www.w3.org/2000/svg"><path d="M22.4516 0H1.54839C0.693236 0 0 0.693236 0 1.54839V22.4516C0 23.3068 0.693236 24 1.54839 24H22.4516C23.3068 24 24 23.3068 24 22.4516V1.54839C24 0.693236 23.3068 0 22.4516 0Z" fill="#3B5998"/><path fill-rule="evenodd" clip-rule="evenodd" d="M13.9263 8.50062L14.1678 6.96771C13.549 6.9256 12.9279 6.93026 12.3098 6.98165C11.8787 7.03904 11.4846 7.25553 11.205 7.58862C10.9414 7.9459 10.8107 8.38402 10.8357 8.82733V10.834L9.28729 10.8224V12.3762L10.8357 12.3817V17.0268L12.3941 17.0229V12.3778H14.2321L14.4721 10.824H12.3949C12.3949 10.824 12.3949 9.05493 12.3949 8.88151C12.4018 8.82152 12.421 8.76364 12.4514 8.71149C12.4819 8.65934 12.5228 8.6141 12.5717 8.57864C12.6205 8.54318 12.6762 8.51826 12.7353 8.50549C12.7943 8.49273 12.8553 8.49238 12.9144 8.50447C13.2559 8.49983 13.9263 8.50062 13.9263 8.50062Z" fill="#fff"/></svg>