<svg width="24" height="24" viewBox="0 0 24 24" fill="none" xmlns="http://www.w3.org/2000/svg"><path d="M22.4516 0H1.54839C0.693236 0 0 0.693236 0 1.54839V22.4516C0 23.3068 0.693236 24 1.54839 24H22.4516C23.3068 24 24 23.3068 24 22.4516V1.54839C24 0.693236 23.3068 0 22.4516 0Z" fill="#2AA1DA"/><path fill-rule="evenodd" clip-rule="evenodd" d="M15.4684 15.5613C15.4542 15.7154 15.3942 15.8617 15.2961 15.9813C15.198 16.101 15.0663 16.1885 14.918 16.2325C14.7696 16.2766 14.6116 16.2753 14.464 16.2286C14.3165 16.182 14.1863 16.0922 14.0903 15.9708C13.2464 15.2996 11.9303 14.3342 11.9303 14.3342C11.9303 14.3342 10.978 16.0111 10.8077 16.183C10.7515 16.2304 10.6861 16.2655 10.6155 16.2861C10.5449 16.3067 10.4707 16.3123 10.3978 16.3026C10.3249 16.2929 10.2549 16.2681 10.1922 16.2298C10.1294 16.1914 10.0754 16.1404 10.0335 16.08C10.0244 16.0546 10.0167 16.0288 10.0104 16.0026L10.5368 13.3301L14.3458 9.5884L9.15091 12.5528C9.15091 12.5528 6.80512 11.8514 6.45674 11.7143C6.36686 11.6652 6.29275 11.5917 6.24296 11.5022C6.19317 11.4127 6.16981 11.3109 6.17549 11.2087C6.18116 11.1065 6.21562 11.0079 6.275 10.9245C6.33438 10.841 6.41623 10.7761 6.51098 10.7373C7.00647 10.4849 15.7471 7.14658 16.0413 7.06064C16.3354 6.97471 17.1097 6.75096 17.0245 7.50425C16.9393 8.25754 15.5535 15.1479 15.4684 15.5613Z" fill="#fff"/></svg>