<svg width="205" height="88" viewBox="0 0 205 88" fill="none" xmlns="http://www.w3.org/2000/svg">
<path d="M0 55.64L35.04 1.99998H54V55.64H63.6V68.36H54V86H39.6V68.36H0V55.64ZM39.6 55.64V17.96L15.48 55.64H39.6Z" fill="url(#paint0_linear)"/>
<path d="M102.652 87.08C98.0116 87.08 93.8116 86.36 90.0516 84.92C86.3716 83.4 83.2516 81.04 80.6916 77.84C78.1316 74.64 76.1316 70.52 74.6916 65.48C73.3316 60.44 72.6516 54.32 72.6516 47.12V40.88C72.6516 33.76 73.3316 27.68 74.6916 22.64C76.1316 17.6 78.1316 13.48 80.6916 10.28C83.3316 6.99998 86.4916 4.63998 90.1716 3.19998C93.8516 1.67998 98.0116 0.919983 102.652 0.919983C107.292 0.919983 111.452 1.67998 115.132 3.19998C118.892 4.63998 122.052 6.95998 124.612 10.16C127.252 13.36 129.252 17.48 130.612 22.52C131.972 27.56 132.652 33.68 132.652 40.88V47.12C132.652 54.24 131.932 60.32 130.492 65.36C129.132 70.4 127.132 74.56 124.492 77.84C121.932 81.04 118.812 83.4 115.132 84.92C111.452 86.36 107.292 87.08 102.652 87.08ZM102.652 73.64C104.972 73.64 107.052 73.24 108.892 72.44C110.732 71.64 112.292 70.24 113.572 68.24C114.852 66.24 115.812 63.56 116.452 60.2C117.172 56.76 117.532 52.4 117.532 47.12V40.88C117.532 35.68 117.172 31.4 116.452 28.04C115.732 24.6 114.732 21.88 113.452 19.88C112.172 17.8 110.612 16.36 108.772 15.56C106.932 14.76 104.892 14.36 102.652 14.36C100.332 14.36 98.2516 14.76 96.4116 15.56C94.5716 16.36 93.0116 17.76 91.7316 19.76C90.4516 21.76 89.4516 24.48 88.7316 27.92C88.0916 31.28 87.7716 35.6 87.7716 40.88V47.12C87.7716 52.32 88.0916 56.64 88.7316 60.08C89.4516 63.44 90.4516 66.16 91.7316 68.24C93.0916 70.24 94.6516 71.64 96.4116 72.44C98.2516 73.24 100.332 73.64 102.652 73.64Z" fill="url(#paint1_linear)"/>
<path d="M141.094 55.64L176.134 1.99998H195.094V55.64H204.694V68.36H195.094V86H180.694V68.36H141.094V55.64ZM180.694 55.64V17.96L156.574 55.64H180.694Z" fill="url(#paint2_linear)"/>
<defs>
<linearGradient id="paint0_linear" x1="0" y1="44" x2="204.694" y2="44" gradientUnits="userSpaceOnUse">
<stop stop-color="#FD3A84"/>
<stop offset="1" stop-color="#FFA68D"/>
</linearGradient>
<linearGradient id="paint1_linear" x1="0" y1="44" x2="204.694" y2="44" gradientUnits="userSpaceOnUse">
<stop stop-color="#FD3A84"/>
<stop offset="1" stop-color="#FFA68D"/>
</linearGradient>
<linearGradient id="paint2_linear" x1="0" y1="44" x2="204.694" y2="44" gradientUnits="userSpaceOnUse">
<stop stop-color="#FD3A84"/>
<stop offset="1" stop-color="#FFA68D"/>
</linearGradient>
</defs>
</svg>
