<svg width="48" height="48" viewBox="0 0 48 48" fill="none" xmlns="http://www.w3.org/2000/svg">
<circle cx="24" cy="24" r="24" fill="#EE2A23"/>
<path d="M23.9648 11C25.865 11 26.462 12.3978 26.963 13.7934C27.1734 14.3861 32.1113 28.2548 32.2598 28.671C32.2993 28.7872 32.2726 28.9778 32.0985 29.0468C31.9233 29.1147 29.3577 30.1379 29.2157 30.1927C29.0736 30.2485 28.9144 30.1675 28.8632 30.0218C28.8098 29.8783 27.7448 26.8548 27.6252 26.5173H20.3064C20.1911 26.8548 19.1133 29.8848 19.0653 30.0218C19.0161 30.1609 18.8634 30.2551 18.7117 30.1927C18.5601 30.1313 15.9848 29.1081 15.831 29.0468C15.6836 28.9876 15.6163 28.8156 15.6676 28.671C15.8492 28.1518 20.7123 14.5055 20.9601 13.7934C21.4429 12.4186 22.0603 11 23.9648 11ZM15.2766 35.8157C15.1228 35.8157 15 35.9472 15 36.1071V39.3486C15 39.5086 15.1228 39.6378 15.2766 39.6378H32.6454C32.8024 39.6378 32.9252 39.5086 32.9252 39.3486V36.1071C32.9252 35.9472 32.8024 35.8157 32.6454 35.8157H15.2766ZM23.9477 15.5287L21.4739 23.1477H26.462L23.9797 15.5287H23.9477Z" fill="white"/>
</svg>
