<svg width="60" height="60" viewBox="0 0 60 60" fill="none" xmlns="http://www.w3.org/2000/svg">
<path d="M50.8644 51.4384V21.6672C50.8647 21.4933 50.807 21.3243 50.7004 21.1869C50.5937 21.0495 50.4443 20.9516 50.2758 20.9088L35.1977 17.1393V13.0528C35.1987 12.8804 35.1426 12.7125 35.0382 12.5753C34.9338 12.4381 34.7869 12.3393 34.6204 12.2944L11.1204 6.00054C10.9958 5.96683 10.8649 5.96364 10.7388 5.99122C10.6127 6.01881 10.4951 6.07636 10.396 6.15902C10.3011 6.23283 10.2244 6.32723 10.1714 6.4351C10.1184 6.54296 10.0907 6.66145 10.0903 6.78161V51.4384H7V53.0005H54V51.4384H50.8644ZM11.6977 7.80039L33.6356 13.6528V51.4384H29.7189V42.824C29.7204 42.7205 29.7013 42.6177 29.6628 42.5216C29.6242 42.4255 29.5669 42.3381 29.4942 42.2644C29.4215 42.1906 29.3349 42.1321 29.2394 42.0921C29.1439 42.0522 29.0414 42.0316 28.9379 42.0316H16.3955C16.2919 42.0316 16.1894 42.0522 16.0939 42.0921C15.9984 42.1321 15.9118 42.1906 15.8391 42.2644C15.7665 42.3381 15.7092 42.4255 15.6706 42.5216C15.632 42.6177 15.6129 42.7205 15.6144 42.824V51.4384H11.6977V7.80039ZM17.1879 43.6051H21.8856V51.4384H17.1879V43.6051ZM23.4477 51.4384V43.6051H28.1455V51.4384H23.4477ZM39.9068 51.4384V45.1672H44.6045V51.4384H39.9068ZM46.1667 51.4384V44.3861C46.1667 44.179 46.0844 43.9803 45.9379 43.8338C45.7914 43.6874 45.5928 43.6051 45.3856 43.6051H39.1144C38.9072 43.6051 38.7086 43.6874 38.5621 43.8338C38.4156 43.9803 38.3333 44.179 38.3333 44.3861V51.4384H35.1977V18.758L49.3023 22.2785V51.4384H46.1667Z" fill="#0A7EBF"/>
<path d="M17.1878 38.9067H20.3121C20.5223 38.9067 20.7238 38.8232 20.8724 38.6746C21.021 38.526 21.1045 38.3245 21.1045 38.1143V34.9901C21.1045 34.7799 21.021 34.5784 20.8724 34.4298C20.7238 34.2812 20.5223 34.1977 20.3121 34.1977H17.1878C16.9777 34.1977 16.7761 34.2812 16.6275 34.4298C16.4789 34.5784 16.3954 34.7799 16.3954 34.9901V38.1143C16.3954 38.3245 16.4789 38.526 16.6275 38.6746C16.7761 38.8232 16.9777 38.9067 17.1878 38.9067ZM17.9689 35.7711H19.531V37.3333H17.9689V35.7711Z" fill="#0A7EBF"/>
<path d="M25.0212 38.9067H28.1455C28.3557 38.9067 28.5572 38.8232 28.7058 38.6746C28.8544 38.526 28.9379 38.3245 28.9379 38.1143V34.9901C28.9379 34.7799 28.8544 34.5784 28.7058 34.4298C28.5572 34.2812 28.3557 34.1977 28.1455 34.1977H25.0212C24.8111 34.1977 24.6095 34.2812 24.4609 34.4298C24.3123 34.5784 24.2288 34.7799 24.2288 34.9901V38.1143C24.2288 38.3245 24.3123 38.526 24.4609 38.6746C24.6095 38.8232 24.8111 38.9067 25.0212 38.9067ZM25.8023 35.7711H27.3758V37.3333H25.8023V35.7711Z" fill="#0A7EBF"/>
<path d="M43.7442 35.8051H40.6086C40.4053 35.805 40.21 35.8842 40.0642 36.0258C39.9183 36.1674 39.8334 36.3603 39.8276 36.5635V39.6991C39.8276 39.9063 39.9098 40.1049 40.0563 40.2514C40.2028 40.3979 40.4015 40.4802 40.6086 40.4802H43.7442C43.9514 40.4802 44.15 40.3979 44.2965 40.2514C44.443 40.1049 44.5253 39.9063 44.5253 39.6991V36.5635C44.5194 36.3603 44.4345 36.1674 44.2887 36.0258C44.1428 35.8842 43.9475 35.805 43.7442 35.8051ZM42.9518 38.9407H41.3897V37.3672H42.9518V38.9407Z" fill="#0A7EBF"/>
<path d="M43.7442 29.5339H40.6086C40.4015 29.5339 40.2028 29.6162 40.0563 29.7627C39.9098 29.9092 39.8276 30.1078 39.8276 30.315V33.4506C39.8276 33.6577 39.9098 33.8564 40.0563 34.0029C40.2028 34.1493 40.4015 34.2316 40.6086 34.2316H43.7442C43.9514 34.2316 44.15 34.1493 44.2965 34.0029C44.443 33.8564 44.5253 33.6577 44.5253 33.4506V30.315C44.5253 30.1078 44.443 29.9092 44.2965 29.7627C44.15 29.6162 43.9514 29.5339 43.7442 29.5339ZM42.9518 32.6695H41.3897V31.1074H42.9518V32.6695Z" fill="#0A7EBF"/>
<path d="M43.7442 23.274H40.6086C40.5011 23.2737 40.3947 23.2957 40.296 23.3384C40.1974 23.3811 40.1086 23.4438 40.0353 23.5224C39.962 23.6011 39.9057 23.694 39.8699 23.7954C39.8342 23.8968 39.8197 24.0045 39.8275 24.1117V27.2473C39.8275 27.4544 39.9098 27.6531 40.0563 27.7996C40.2028 27.9461 40.4014 28.0284 40.6086 28.0284H43.7442C43.9514 28.0284 44.15 27.9461 44.2965 27.7996C44.443 27.6531 44.5253 27.4544 44.5253 27.2473V24.1117C44.5331 24.0045 44.5186 23.8968 44.4829 23.7954C44.4471 23.694 44.3908 23.6011 44.3175 23.5224C44.2442 23.4438 44.1554 23.3811 44.0568 23.3384C43.9581 23.2957 43.8517 23.2737 43.7442 23.274ZM42.9518 26.3757H41.3897V24.8362H42.9518V26.3757Z" fill="#0A7EBF"/>
<path d="M17.1878 32.6355H20.3121C20.4156 32.637 20.5184 32.6179 20.6145 32.5794C20.7106 32.5408 20.798 32.4835 20.8717 32.4108C20.9455 32.3381 21.004 32.2515 21.044 32.156C21.0839 32.0605 21.1045 31.958 21.1045 31.8545V28.7189C21.1045 28.6153 21.0839 28.5128 21.044 28.4173C21.004 28.3218 20.9455 28.2352 20.8717 28.1625C20.798 28.0899 20.7106 28.0326 20.6145 27.994C20.5184 27.9554 20.4156 27.9363 20.3121 27.9378H17.1878C17.0843 27.9363 16.9815 27.9554 16.8855 27.994C16.7894 28.0326 16.7019 28.0899 16.6282 28.1625C16.5545 28.2352 16.4959 28.3218 16.456 28.4173C16.416 28.5128 16.3954 28.6153 16.3954 28.7189V31.8545C16.3954 31.958 16.416 32.0605 16.456 32.156C16.4959 32.2515 16.5545 32.3381 16.6282 32.4108C16.7019 32.4835 16.7894 32.5408 16.8855 32.5794C16.9815 32.6179 17.0843 32.637 17.1878 32.6355ZM17.9689 29.4999H19.531V31.0734H17.9689V29.4999Z" fill="#0A7EBF"/>
<path d="M25.0212 32.6355H28.1455C28.249 32.637 28.3518 32.6179 28.4479 32.5794C28.544 32.5408 28.6314 32.4835 28.7051 32.4108C28.7789 32.3381 28.8374 32.2515 28.8774 32.156C28.9173 32.0605 28.9379 31.958 28.9379 31.8545V28.7189C28.9379 28.6153 28.9173 28.5128 28.8774 28.4173C28.8374 28.3218 28.7789 28.2352 28.7051 28.1625C28.6314 28.0899 28.544 28.0326 28.4479 27.994C28.3518 27.9554 28.249 27.9363 28.1455 27.9378H25.0212C24.9177 27.9363 24.8149 27.9554 24.7188 27.994C24.6228 28.0326 24.5353 28.0899 24.4616 28.1625C24.3879 28.2352 24.3293 28.3218 24.2894 28.4173C24.2494 28.5128 24.2288 28.6153 24.2288 28.7189V31.8545C24.2288 31.958 24.2494 32.0605 24.2894 32.156C24.3293 32.2515 24.3879 32.3381 24.4616 32.4108C24.5353 32.4835 24.6228 32.5408 24.7188 32.5794C24.8149 32.6179 24.9177 32.637 25.0212 32.6355ZM25.8023 29.4999H27.3758V31.0734H25.8023V29.4999Z" fill="#0A7EBF"/>
<path d="M17.1878 26.3757H20.3121C20.4156 26.3772 20.5184 26.3581 20.6145 26.3195C20.7106 26.2809 20.798 26.2236 20.8718 26.1509C20.9455 26.0783 21.004 25.9916 21.044 25.8961C21.084 25.8006 21.1045 25.6981 21.1045 25.5946V22.4477C21.1045 22.3441 21.084 22.2416 21.044 22.1461C21.004 22.0506 20.9455 21.964 20.8718 21.8913C20.798 21.8187 20.7106 21.7614 20.6145 21.7228C20.5184 21.6842 20.4156 21.6651 20.3121 21.6666H17.1878C17.0843 21.6651 16.9815 21.6842 16.8855 21.7228C16.7894 21.7614 16.7019 21.8187 16.6282 21.8913C16.5545 21.964 16.4959 22.0506 16.456 22.1461C16.416 22.2416 16.3954 22.3441 16.3955 22.4477V25.5833C16.3939 25.6878 16.4134 25.7915 16.4527 25.8883C16.4919 25.9851 16.5503 26.0731 16.6241 26.147C16.698 26.2209 16.786 26.2792 16.8828 26.3185C16.9796 26.3577 17.0834 26.3772 17.1878 26.3757ZM17.9689 23.2401H19.5311V24.8135H17.9689V23.2401Z" fill="#0A7EBF"/>
<path d="M25.0212 26.3757H28.1454C28.249 26.3772 28.3518 26.3581 28.4478 26.3195C28.5439 26.2809 28.6313 26.2236 28.7051 26.1509C28.7788 26.0783 28.8374 25.9916 28.8773 25.8961C28.9173 25.8006 28.9378 25.6981 28.9378 25.5946V22.4477C28.9378 22.3441 28.9173 22.2416 28.8773 22.1461C28.8374 22.0506 28.7788 21.964 28.7051 21.8913C28.6313 21.8187 28.5439 21.7614 28.4478 21.7228C28.3518 21.6842 28.249 21.6651 28.1454 21.6666H25.0212C24.9177 21.6651 24.8149 21.6842 24.7188 21.7228C24.6227 21.7614 24.5353 21.8187 24.4615 21.8913C24.3878 21.964 24.3293 22.0506 24.2893 22.1461C24.2493 22.2416 24.2288 22.3441 24.2288 22.4477V25.5833C24.2273 25.6878 24.2467 25.7915 24.286 25.8883C24.3253 25.9851 24.3836 26.0731 24.4575 26.147C24.5314 26.2209 24.6193 26.2792 24.7161 26.3185C24.813 26.3577 24.9167 26.3772 25.0212 26.3757ZM25.8022 23.2401H27.3757V24.8135H25.8022V23.2401Z" fill="#0A7EBF"/>
<path d="M17.1878 20.1045H20.3121C20.5223 20.1045 20.7238 20.021 20.8724 19.8724C21.021 19.7238 21.1045 19.5222 21.1045 19.3121V16.1878C21.1045 15.9777 21.021 15.7761 20.8724 15.6275C20.7238 15.4789 20.5223 15.3954 20.3121 15.3954H17.1878C16.9777 15.3954 16.7761 15.4789 16.6275 15.6275C16.4789 15.7761 16.3954 15.9777 16.3954 16.1878V19.3121C16.3954 19.5222 16.4789 19.7238 16.6275 19.8724C16.7761 20.021 16.9777 20.1045 17.1878 20.1045ZM17.9689 16.9689H19.531V18.531H17.9689V16.9689Z" fill="#0A7EBF"/>
<path d="M25.0212 20.1045H28.1455C28.3557 20.1045 28.5572 20.021 28.7058 19.8724C28.8544 19.7238 28.9379 19.5222 28.9379 19.3121V16.1878C28.9379 15.9777 28.8544 15.7761 28.7058 15.6275C28.5572 15.4789 28.3557 15.3954 28.1455 15.3954H25.0212C24.8111 15.3954 24.6095 15.4789 24.4609 15.6275C24.3123 15.7761 24.2288 15.9777 24.2288 16.1878V19.3121C24.2288 19.5222 24.3123 19.7238 24.4609 19.8724C24.6095 20.021 24.8111 20.1045 25.0212 20.1045ZM25.8023 16.9689H27.3758V18.531H25.8023V16.9689Z" fill="#0A7EBF"/>
</svg>
