<svg width="60" height="60" viewBox="0 0 60 60" fill="none" xmlns="http://www.w3.org/2000/svg">
<path d="M30.4196 56H36.9882V49.4314H30.4196V56ZM32.0534 51.0652H35.332V54.355H32.0534V51.0652Z" fill="#0A7EBF"/>
<path d="M40.2892 56H46.8578V49.4314H40.2892V56ZM41.923 51.0652H45.28V54.355H41.923V51.0652Z" fill="#0A7EBF"/>
<path d="M55.1272 54.253H53.3592V33.0927H50.7071V30.4518H48.9615V33.0927H46.3206V38.3856H42.7734V27.7998H41.0278V33.0927H37.4805V25.159H35.7461V38.3856H32.1988V33.0927H29.5468V27.7998H27.8012V33.0927H25.1603V54.253H18.9722V24.2526H22.0607C22.6542 24.2526 23.2235 24.0168 23.6432 23.5971C24.0629 23.1774 24.2987 22.6081 24.2987 22.0146V18.9709H48.9615V26.9046H50.7071V18.9709H53.8068C54.2842 18.939 54.7388 18.755 55.104 18.4459C55.4691 18.1367 55.7256 17.7187 55.8357 17.253C55.9459 16.7874 55.9039 16.2988 55.716 15.8588C55.528 15.4188 55.204 15.0506 54.7915 14.8082L49.4986 12.1674C49.1936 12.0121 48.8561 11.9316 48.5139 11.9324H19.4198V11.854L16.0964 5.20717C15.8643 4.77766 15.4981 4.43583 15.0536 4.2338C14.6092 4.03178 14.1108 3.98063 13.6346 4.08816C13.1531 4.20717 12.7248 4.48277 12.4169 4.87165C12.109 5.26054 11.9391 5.74068 11.9337 6.23665V11.9324H6.238C5.64445 11.9324 5.0752 12.1682 4.6555 12.5879C4.23579 13.0076 4 13.5768 4 14.1704V16.8112C4 17.4048 4.23579 17.974 4.6555 18.3937C5.0752 18.8134 5.64445 19.0492 6.238 19.0492H11.9337V54.253H4.87282C4.64133 54.253 4.41933 54.345 4.25564 54.5086C4.09196 54.6723 4 54.8943 4 55.1258C4 55.3573 4.09196 55.5793 4.25564 55.743C4.41933 55.9067 4.64133 55.9986 4.87282 55.9986H55.1272C55.3587 55.9986 55.5807 55.9067 55.7444 55.743C55.908 55.5793 56 55.3573 56 55.1258C56 54.8943 55.908 54.6723 55.7444 54.5086C55.5807 54.345 55.3587 54.253 55.1272 54.253ZM11.9337 17.2252H5.74564V13.678H11.9337V17.2252ZM48.7601 13.7228L53.8515 16.3077C53.9481 16.358 54.0253 16.439 54.071 16.5378C54.1167 16.6367 54.1282 16.748 54.1039 16.8542C54.0796 16.9603 54.0208 17.0555 53.9366 17.1246C53.8525 17.1938 53.7478 17.2331 53.6389 17.2364H24.2651V16.7776C24.2668 16.4831 24.2104 16.1911 24.099 15.9185C23.9876 15.6458 23.8235 15.3978 23.6161 15.1887L22.0719 13.678L48.7601 13.7228ZM13.6794 6.35974C13.6827 6.25086 13.722 6.14614 13.7911 6.062C13.8603 5.97785 13.9554 5.91901 14.0616 5.89471C14.1678 5.8704 14.2791 5.88199 14.378 5.92767C14.4768 5.97334 14.5578 6.05052 14.6081 6.14713L17.5063 11.9324H13.6794V6.35974ZM13.6794 13.678H19.666L22.5307 16.5427V22.4622H13.6794V13.678ZM17.2266 54.253H13.6794V24.2526H17.2266V54.253ZM51.6135 54.253H26.906V34.8383H30.4532V40.1312H37.4805V34.8383H41.0278V40.1312H48.0663V34.8383H51.6135V54.253Z" fill="#0A7EBF"/>
</svg>
