<svg width="60" height="60" viewBox="0 0 60 60" fill="none" xmlns="http://www.w3.org/2000/svg">
<path d="M15.2037 15.2365C14.9276 15.2365 14.7037 15.4603 14.7037 15.7365C14.7037 16.0126 14.9276 16.2365 15.2037 16.2365H31.086C31.3621 16.2365 31.586 16.0126 31.586 15.7365C31.586 15.4603 31.3621 15.2365 31.086 15.2365H15.2037Z" fill="#9DB0B6"/>
<path d="M10.9281 22.4486C10.9281 22.1725 11.1519 21.9486 11.4281 21.9486L35.9549 21.9486C36.2311 21.9486 36.4549 22.1725 36.4549 22.4486C36.4549 22.7247 36.2311 22.9486 35.9549 22.9486L11.4281 22.9486C11.1519 22.9486 10.9281 22.7248 10.9281 22.4486Z" fill="#9DB0B6"/>
<path d="M11.4281 28.1525C11.1519 28.1525 10.9281 28.3763 10.9281 28.6525C10.9281 28.9286 11.1519 29.1525 11.4281 29.1525L35.9549 29.1525C36.2311 29.1525 36.4549 28.9286 36.4549 28.6525C36.4549 28.3763 36.2311 28.1525 35.9549 28.1525L11.4281 28.1525Z" fill="#9DB0B6"/>
<path d="M10.9281 34.6527C10.9281 34.3766 11.1519 34.1527 11.4281 34.1527L35.9549 34.1527C36.2311 34.1527 36.4549 34.3766 36.4549 34.6527C36.4549 34.9289 36.2311 35.1527 35.9549 35.1527L11.4281 35.1527C11.1519 35.1527 10.9281 34.9289 10.9281 34.6527Z" fill="#9DB0B6"/>
<path d="M10.2086 53.243C10.3362 53.0245 10.4328 52.7271 10.5123 52.4162C10.5945 52.0946 10.6688 51.7153 10.7379 51.3073C10.8529 50.6276 10.9577 49.8414 11.0603 49.071C11.0807 48.918 11.101 48.7655 11.1213 48.6146C11.2305 47.8027 11.3387 47.0402 11.4574 46.4429C11.4921 46.6896 11.5277 46.9749 11.5658 47.2797C11.6328 47.8161 11.7073 48.4127 11.7975 48.9651C11.9477 49.8847 12.1628 50.8471 12.538 51.5017C12.7278 51.8327 12.9927 52.1464 13.3705 52.2997C13.7701 52.4619 14.1948 52.405 14.6055 52.1919C14.9859 51.9945 15.2217 51.6868 15.3822 51.3865C15.5123 51.1431 15.6083 50.8719 15.6868 50.6502C15.7011 50.6098 15.7148 50.571 15.728 50.5344C15.8245 50.2673 15.8985 50.102 15.9842 49.9986C16.0433 49.9272 16.1033 49.8868 16.2394 49.8868C16.328 49.8868 16.375 49.909 16.4426 50.0131C16.5343 50.1541 16.6024 50.3638 16.6944 50.6706L16.7058 50.7086C16.785 50.9735 16.887 51.3146 17.0569 51.5937C17.2522 51.9145 17.5656 52.2007 18.0578 52.246C19.5553 52.3837 21.5367 52.383 23.1297 52.3492C23.9291 52.3323 24.6362 52.3068 25.1435 52.2856C25.3972 52.275 25.6011 52.2655 25.7417 52.2586C25.8121 52.2551 25.8666 52.2523 25.9037 52.2504L25.946 52.2481L25.9607 52.2473L25.905 51.2489L25.8923 51.2496L25.8515 51.2517L25.6927 51.2598C25.5542 51.2666 25.3528 51.276 25.1017 51.2865C24.5996 51.3075 23.8995 51.3327 23.1084 51.3494C21.5203 51.3831 19.5869 51.3824 18.1494 51.2502C18.0567 51.2417 17.9914 51.2058 17.9111 51.0737C17.8136 50.9135 17.7444 50.6907 17.6523 50.3835L17.6455 50.3607C17.5654 50.0934 17.4611 49.7451 17.281 49.4681C17.0718 49.1462 16.7383 48.8868 16.2394 48.8868C15.788 48.8868 15.4517 49.0738 15.2141 49.3606C15.003 49.6154 14.8799 49.9389 14.7875 50.1946C14.7702 50.2426 14.7537 50.289 14.7377 50.334C14.6585 50.5563 14.5917 50.7441 14.5002 50.9152C14.397 51.1083 14.2859 51.2311 14.1449 51.3043C13.9235 51.4192 13.8092 51.3986 13.7465 51.3731C13.662 51.3388 13.5413 51.241 13.4056 51.0043C13.13 50.5236 12.9351 49.7262 12.7845 48.8039C12.6944 48.2525 12.6276 47.7143 12.5645 47.2051C12.5209 46.8539 12.479 46.5163 12.4324 46.1977C12.3787 45.8306 12.3179 45.4882 12.2378 45.2307C12.1988 45.1052 12.1445 44.9633 12.0617 44.8431C11.983 44.7287 11.8075 44.5369 11.5167 44.537C11.2729 44.537 11.102 44.6709 11.0059 44.7769C10.91 44.8827 10.8415 45.0099 10.7904 45.1249C10.6868 45.358 10.6023 45.6649 10.5289 45.9974C10.3806 46.6698 10.253 47.5685 10.1302 48.4813C10.1095 48.6354 10.0889 48.7901 10.0683 48.9445C9.96563 49.7151 9.86372 50.4798 9.75191 51.1404C9.68491 51.5363 9.6159 51.8851 9.54345 52.1684C9.4683 52.4623 9.3989 52.6465 9.34505 52.7387L10.2086 53.243Z" fill="#9DB0B6"/>
<path fill-rule="evenodd" clip-rule="evenodd" d="M4.17245 9.22539C4.17245 8.8388 4.48584 8.52539 4.87245 8.52539H41.4173C41.8039 8.52539 42.1173 8.83879 42.1173 9.22539V50.5585C42.1173 50.7491 42.0395 50.9315 41.9021 51.0635L33.4794 59.1494C33.3491 59.2745 33.1754 59.3444 32.9947 59.3444H4.87245C4.48585 59.3444 4.17245 59.031 4.17245 58.6444V9.22539ZM5.17245 9.52539V58.3444H32.3617V50.0751C32.3617 49.6885 32.6751 49.3751 33.0617 49.3751H41.1173V9.52539H5.17245ZM41.1173 50.4307L33.3617 57.8762V50.3751H41.1173V50.4307Z" fill="#9DB0B6"/>
<path d="M17.7842 2.68532C17.3983 2.66257 17.067 2.95699 17.0442 3.34291L16.6875 9.39436H17.6892L18.0248 3.70124L53.9036 5.81618L50.5242 56.6032L36.5943 55.6572L35.6484 56.6032L50.7622 57.6191C51.1462 57.642 51.4767 57.3507 51.5022 56.9669L54.9214 5.58096C54.9472 5.19315 54.6522 4.85857 54.2642 4.8357L17.7842 2.68532Z" fill="#9DB0B6"/>
</svg>
