<svg width="48" height="48" viewBox="0 0 48 48" fill="none" xmlns="http://www.w3.org/2000/svg">
<circle cx="24" cy="24" r="24" fill="#8DC640"/>
<path d="M20.1713 34.7059H12.5315V31.4162H20.1713V34.7059ZM21.7028 29.7647H11V38H12.5315V36.3574H21.7028V29.7647ZM12.5315 14.9434L15.5944 11.6471V23.1765H12.5315V14.9434ZM11 24.828H17.1106V10H14.8199L11 14.1199V24.828ZM20.1713 11.6471H23.2343V23.1765H20.1713V11.6471ZM18.6574 24.828H24.7548V10H18.6574V24.828ZM35.4685 24.828H37V10H34.6962V10.0111L32.4056 12.4773V10H30.1106L26.2863 14.1199V24.828H27.8177V14.9434L30.8807 11.6471V24.828H32.4122V14.9434L35.4751 11.6471L35.4685 24.828ZM11 28.1199H36.9913V26.4706H11V28.1199ZM30.8741 31.4162H35.4576V34.7059H30.8741V31.4162ZM29.3426 34.7081H24.7482V31.4162H29.3426V34.7081ZM30.8741 36.3574H37V29.7669H23.2365V36.3574H29.3448V38H30.8763L30.8741 36.3574Z" fill="white"/>
</svg>
