<svg width="32" height="32" viewBox="0 0 32 32" fill="none" xmlns="http://www.w3.org/2000/svg">
<g>
<path d="M16 19.125C14.2773 19.125 12.875 17.7224 12.875 16C12.875 14.2764 14.2773 12.875 16 12.875C17.7227 12.875 19.125 14.2764 19.125 16C19.125 17.7224 17.7227 19.125 16 19.125Z" fill="#0A7EBF"/>
<path fill-rule="evenodd" clip-rule="evenodd" d="M24.125 19.75C24.125 22.1626 22.1626 24.125 19.75 24.125H12.25C9.8374 24.125 7.875 22.1626 7.875 19.75V12.25C7.875 9.8374 9.8374 7.875 12.25 7.875H19.75C22.1626 7.875 24.125 9.8374 24.125 12.25V19.75ZM16 11C13.2388 11 11 13.2388 11 16C11 18.7612 13.2388 21 16 21C18.7612 21 21 18.7612 21 16C21 13.2388 18.7612 11 16 11ZM22.125 10.625C22.125 11.2808 21.5933 11.8125 20.9375 11.8125C20.2817 11.8125 19.75 11.2808 19.75 10.625C19.75 9.96924 20.2817 9.4375 20.9375 9.4375C21.5933 9.4375 22.125 9.96924 22.125 10.625Z" fill="#0A7EBF"/>
<path fill-rule="evenodd" clip-rule="evenodd" d="M16 32C24.8364 32 32 24.8367 32 16C32 7.16333 24.8364 0 16 0C7.16357 0 0 7.16333 0 16C0 24.8367 7.16357 32 16 32ZM26 12.25C26 8.79883 23.2012 6 19.75 6H12.25C8.79883 6 6 8.79883 6 12.25V19.75C6 23.2012 8.79883 26 12.25 26H19.75C23.2012 26 26 23.2012 26 19.75V12.25Z" fill="#0A7EBF"/>
</g>
</svg>
