<svg width="24" height="24" viewBox="0 0 24 24" fill="none" xmlns="http://www.w3.org/2000/svg">
<path fill-rule="evenodd" clip-rule="evenodd" d="M5 2C5 1.44772 5.44772 1 6 1H18C18.5523 1 19 1.44772 19 2V8H20C20.7957 8 21.5587 8.31607 22.1213 8.87868C22.6839 9.44129 23 10.2043 23 11V16C23 16.7957 22.6839 17.5587 22.1213 18.1213C21.5587 18.6839 20.7957 19 20 19H19V22C19 22.5523 18.5523 23 18 23H6C5.44772 23 5 22.5523 5 22V19H4C3.20435 19 2.44129 18.6839 1.87868 18.1213C1.31607 17.5587 1 16.7956 1 16V11C1 10.2044 1.31607 9.44129 1.87868 8.87868C2.44129 8.31607 3.20435 8 4 8H5V2ZM17 3V8H7V3H17ZM17 21V15H7V21H17ZM5.5 13C6.32843 13 7 12.3284 7 11.5C7 10.6716 6.32843 10 5.5 10C4.67157 10 4 10.6716 4 11.5C4 12.3284 4.67157 13 5.5 13Z"/>
</svg>
