<svg width="60" height="60" viewBox="0 0 60 60" fill="none" xmlns="http://www.w3.org/2000/svg">
<path d="M34.0116 13.0326C34.121 13.034 34.2297 13.0136 34.3312 12.9726C34.4327 12.9316 34.5251 12.8708 34.603 12.7937C34.6809 12.7167 34.7427 12.6249 34.7849 12.5236C34.8272 12.4224 34.8489 12.3138 34.8489 12.2042V8.65683H53.6508V36.0689C53.6508 36.1791 53.6725 36.2882 53.7146 36.39C53.7566 36.4918 53.8183 36.5843 53.8961 36.6622C53.9738 36.7401 54.0661 36.8019 54.1677 36.8441C54.2693 36.8863 54.3782 36.908 54.4881 36.908C54.5981 36.908 54.707 36.8863 54.8085 36.8441C54.9101 36.8019 55.0024 36.7401 55.0802 36.6622C55.1579 36.5843 55.2196 36.4918 55.2617 36.39C55.3038 36.2882 55.3254 36.1791 55.3254 36.0689V7.96649C55.3254 7.71016 55.2238 7.46433 55.0429 7.28308C54.8621 7.10183 54.6167 7 54.3609 7H34.1388C33.883 7 33.6377 7.10183 33.4568 7.28308C33.2759 7.46433 33.1743 7.71016 33.1743 7.96649V12.2148C33.1798 12.4336 33.2705 12.6416 33.4269 12.7944C33.5833 12.9472 33.7931 13.0326 34.0116 13.0326Z" fill="#0A7EBF"/>
<path d="M56.1627 50.3219H54.4881V45.1709C54.9267 45.0566 55.3374 44.854 55.6953 44.5755C56.0533 44.297 56.3509 43.9484 56.57 43.551C56.7891 43.1535 56.9252 42.7155 56.97 42.2636C57.0148 41.8117 56.9673 41.3555 56.8304 40.9226C56.6714 40.425 56.396 39.9727 56.0273 39.6032C55.6586 39.2337 55.2072 38.9578 54.7107 38.7984C54.2757 38.6015 53.8038 38.4999 53.3264 38.5006C52.8491 38.5013 52.3774 38.6043 51.943 38.8026C51.5087 39.0009 51.1216 39.2899 50.8078 39.6503C50.494 40.0108 50.2607 40.4342 50.1235 40.8924C49.9863 41.3505 49.9485 41.8328 50.0125 42.3068C50.0765 42.7808 50.2409 43.2356 50.4946 43.6408C50.7483 44.0459 51.0856 44.392 51.4837 44.6559C51.8818 44.9198 52.3316 45.0954 52.8029 45.1709V50.3219H41.5472V17.2278C41.5475 17.0411 41.4848 16.8598 41.3694 16.7133C41.2539 16.5668 41.0925 16.4637 40.9113 16.4206L14.065 10.303C13.9484 10.2759 13.8273 10.2754 13.7105 10.3017C13.5938 10.328 13.4844 10.3803 13.3907 10.4549C13.297 10.5294 13.2212 10.6242 13.1692 10.7321C13.1171 10.8401 13.09 10.9584 13.0899 11.0784V22.6656H7.29245C7.07039 22.6656 6.85742 22.754 6.7004 22.9113C6.54338 23.0687 6.45516 23.2821 6.45516 23.5046V31.0347C6.45516 31.2572 6.54338 31.4706 6.7004 31.628C6.85742 31.7853 7.07039 31.8737 7.29245 31.8737C7.51452 31.8737 7.72748 31.7853 7.88451 31.628C8.04153 31.4706 8.12974 31.2572 8.12974 31.0347V24.3436H16.4921V50.3219H8.07675V41.8254C9.10757 41.6172 10.0244 41.0327 10.6493 40.1852C11.2741 39.3376 11.5623 38.2877 11.458 37.2391C11.3536 36.1906 10.8641 35.2184 10.0846 34.5112C9.305 33.8041 8.29099 33.4125 7.23946 33.4125C6.18793 33.4125 5.17392 33.8041 4.39435 34.5112C3.61478 35.2184 3.12529 36.1906 3.02094 37.2391C2.91658 38.2877 3.20481 39.3376 3.82965 40.1852C4.45449 41.0327 5.37135 41.6172 6.40217 41.8254V50.3219H3.89029C3.66823 50.3219 3.45526 50.4103 3.29824 50.5677C3.14122 50.725 3.053 50.9384 3.053 51.161C3.053 51.3835 3.14122 51.5969 3.29824 51.7543C3.45526 51.9116 3.66823 52 3.89029 52H56.1627C56.3848 52 56.5977 51.9116 56.7548 51.7543C56.9118 51.5969 57 51.3835 57 51.161C57 50.9384 56.9118 50.725 56.7548 50.5677C56.5977 50.4103 56.3848 50.3219 56.1627 50.3219ZM4.72759 37.8001C4.71722 37.3024 4.85434 36.8128 5.12162 36.3932C5.3889 35.9736 5.77433 35.6429 6.22918 35.4428C6.68403 35.2427 7.18788 35.1822 7.67702 35.269C8.16616 35.3559 8.61863 35.5861 8.97722 35.9306C9.33581 36.275 9.58441 36.7183 9.69161 37.2044C9.7988 37.6905 9.75977 38.1975 9.57944 38.6613C9.39912 39.1251 9.0856 39.525 8.67852 39.8103C8.27144 40.0956 7.78909 40.2535 7.29245 40.2641C6.96257 40.2712 6.63453 40.213 6.32708 40.093C6.01963 39.9729 5.73879 39.7934 5.50061 39.5646C5.26242 39.3358 5.07156 39.0622 4.93892 38.7594C4.80628 38.4566 4.73447 38.1307 4.72759 37.8001ZM39.8726 50.3219H28.2141V46.8808C29.245 46.6727 30.1618 46.0881 30.7867 45.2406C31.4115 44.3931 31.6997 43.3431 31.5954 42.2946C31.491 41.2461 31.0015 40.2738 30.222 39.5667C29.4424 38.8595 28.4284 38.4679 27.3768 38.4679C26.3253 38.4679 25.3113 38.8595 24.5317 39.5667C23.7522 40.2738 23.2627 41.2461 23.1583 42.2946C23.054 43.3431 23.3422 44.3931 23.967 45.2406C24.5919 46.0881 25.5087 46.6727 26.5396 46.8808V50.3219H18.1666V23.5046C18.1666 23.2821 18.0784 23.0687 17.9214 22.9113C17.7644 22.754 17.5514 22.6656 17.3293 22.6656H14.7645V12.1404L39.8726 17.8862V50.3219ZM27.3239 45.2877C26.827 45.2877 26.3414 45.1401 25.9283 44.8635C25.5153 44.5869 25.1933 44.1938 25.0032 43.7339C24.8131 43.2739 24.7633 42.7678 24.8602 42.2795C24.9572 41.7913 25.1964 41.3428 25.5477 40.9907C25.899 40.6387 26.3466 40.399 26.8338 40.3018C27.3211 40.2047 27.8261 40.2546 28.2851 40.4451C28.7441 40.6356 29.1364 40.9582 29.4124 41.3722C29.6884 41.7861 29.8357 42.2728 29.8357 42.7706C29.8357 43.4382 29.5711 44.0784 29.1 44.5505C28.6289 45.0225 27.99 45.2877 27.3239 45.2877ZM51.9762 41.9316C51.9762 41.5997 52.0745 41.2752 52.2585 40.9993C52.4425 40.7233 52.704 40.5082 53.01 40.3812C53.316 40.2542 53.6527 40.221 53.9775 40.2857C54.3024 40.3505 54.6007 40.5103 54.8349 40.745C55.0691 40.9797 55.2286 41.2787 55.2932 41.6042C55.3579 41.9297 55.3247 42.2671 55.1979 42.5737C55.0712 42.8804 54.8566 43.1424 54.5812 43.3268C54.3058 43.5112 53.982 43.6096 53.6508 43.6096C53.4305 43.611 53.2121 43.5686 53.0083 43.4848C52.8045 43.4009 52.6194 43.2774 52.4636 43.1213C52.3078 42.9652 52.1845 42.7796 52.1009 42.5754C52.0172 42.3712 51.9748 42.1523 51.9762 41.9316Z" fill="#0A7EBF"/>
<path d="M23.8475 36.738H26.8681C26.9669 36.738 27.0648 36.7185 27.1561 36.6806C27.2474 36.6427 27.3303 36.5872 27.4002 36.5172C27.4701 36.4471 27.5255 36.364 27.5633 36.2725C27.6011 36.181 27.6206 36.083 27.6206 35.984V32.9889C27.6206 32.8899 27.6011 32.7918 27.5633 32.7003C27.5255 32.6089 27.4701 32.5257 27.4002 32.4557C27.3303 32.3857 27.2474 32.3301 27.1561 32.2922C27.0648 32.2543 26.9669 32.2348 26.8681 32.2348H23.8475C23.6479 32.2348 23.4565 32.3143 23.3154 32.4557C23.1743 32.5971 23.095 32.7889 23.095 32.9889V36.0158C23.1032 36.2102 23.1861 36.3939 23.3263 36.5285C23.4666 36.6631 23.6533 36.7382 23.8475 36.738ZM24.6 33.7111H26.1156V35.2299H24.6V33.7111Z" fill="#0A7EBF"/>
<path d="M31.3937 36.738H34.4143C34.6139 36.738 34.8053 36.6586 34.9464 36.5172C35.0876 36.3757 35.1668 36.1839 35.1668 35.984V32.9889C35.1668 32.7889 35.0876 32.5971 34.9464 32.4557C34.8053 32.3143 34.6139 32.2348 34.4143 32.2348H31.3937C31.1941 32.2348 31.0027 32.3143 30.8616 32.4557C30.7205 32.5971 30.6412 32.7889 30.6412 32.9889V36.0158C30.6494 36.2102 30.7323 36.3939 30.8726 36.5285C31.0128 36.6631 31.1995 36.7382 31.3937 36.738ZM32.1568 33.7111H33.6618V35.2299H32.1568V33.7111Z" fill="#0A7EBF"/>
<path d="M23.8475 30.7161H26.8681C26.9669 30.7161 27.0648 30.6966 27.1561 30.6587C27.2474 30.6208 27.3303 30.5652 27.4002 30.4952C27.4701 30.4252 27.5255 30.3421 27.5633 30.2506C27.6011 30.1591 27.6206 30.061 27.6206 29.962V26.9351C27.6206 26.8361 27.6011 26.738 27.5633 26.6465C27.5255 26.555 27.4701 26.4719 27.4002 26.4019C27.3303 26.3319 27.2474 26.2763 27.1561 26.2384C27.0648 26.2005 26.9669 26.181 26.8681 26.181H23.8475C23.6479 26.181 23.4565 26.2605 23.3154 26.4019C23.1743 26.5433 23.095 26.7351 23.095 26.9351V29.962C23.095 30.162 23.1743 30.3538 23.3154 30.4952C23.4565 30.6366 23.6479 30.7161 23.8475 30.7161ZM24.6 27.6892H26.1156V29.2079H24.6V27.6892Z" fill="#0A7EBF"/>
<path d="M10.684 30.8223H13.7046C13.9042 30.8223 14.0956 30.7428 14.2367 30.6014C14.3778 30.46 14.4571 30.2682 14.4571 30.0682V27.0413C14.4571 26.8413 14.3778 26.6495 14.2367 26.5081C14.0956 26.3667 13.9042 26.2872 13.7046 26.2872H10.684C10.4844 26.2872 10.293 26.3667 10.1519 26.5081C10.0108 26.6495 9.93151 26.8413 9.93151 27.0413V30.0682C9.93151 30.2682 10.0108 30.46 10.1519 30.6014C10.293 30.7428 10.4844 30.8223 10.684 30.8223ZM11.4365 27.7954H12.9521V29.3035H11.4365V27.7954Z" fill="#0A7EBF"/>
<path d="M31.3937 30.7161H34.4143C34.6139 30.7161 34.8053 30.6366 34.9464 30.4952C35.0876 30.3538 35.1668 30.162 35.1668 29.962V26.9351C35.1668 26.7351 35.0876 26.5433 34.9464 26.4019C34.8053 26.2605 34.6139 26.181 34.4143 26.181H31.3937C31.1941 26.181 31.0027 26.2605 30.8616 26.4019C30.7205 26.5433 30.6412 26.7351 30.6412 26.9351V29.962C30.6412 30.162 30.7205 30.3538 30.8616 30.4952C31.0027 30.6366 31.1941 30.7161 31.3937 30.7161ZM32.1568 27.6892H33.6618V29.2079H32.1568V27.6892Z" fill="#0A7EBF"/>
<path d="M23.8475 24.6729H26.8681C26.9678 24.6729 27.0666 24.653 27.1586 24.6145C27.2505 24.5759 27.334 24.5194 27.404 24.4483C27.474 24.3771 27.5292 24.2927 27.5664 24.2C27.6036 24.1073 27.622 24.0081 27.6206 23.9082V20.8813C27.6206 20.7823 27.6011 20.6842 27.5633 20.5927C27.5255 20.5012 27.4701 20.4181 27.4002 20.3481C27.3303 20.2781 27.2474 20.2225 27.1561 20.1846C27.0648 20.1467 26.9669 20.1272 26.8681 20.1272H23.8475C23.7487 20.1272 23.6508 20.1467 23.5595 20.1846C23.4682 20.2225 23.3853 20.2781 23.3154 20.3481C23.2455 20.4181 23.1901 20.5012 23.1523 20.5927C23.1145 20.6842 23.095 20.7823 23.095 20.8813V23.9082C23.0936 24.0081 23.112 24.1073 23.1492 24.2C23.1864 24.2927 23.2416 24.3771 23.3116 24.4483C23.3816 24.5194 23.4651 24.5759 23.5571 24.6145C23.6491 24.653 23.7478 24.6729 23.8475 24.6729ZM24.6 21.646H26.1156V23.1541H24.6V21.646Z" fill="#0A7EBF"/>
<path d="M31.3937 24.6729H34.4143C34.514 24.6729 34.6128 24.653 34.7048 24.6145C34.7968 24.5759 34.8802 24.5194 34.9502 24.4483C35.0202 24.3771 35.0754 24.2927 35.1126 24.2C35.1498 24.1073 35.1682 24.0081 35.1668 23.9082V20.8813C35.1668 20.7823 35.1474 20.6842 35.1096 20.5927C35.0717 20.5012 35.0163 20.4181 34.9464 20.3481C34.8766 20.2781 34.7936 20.2225 34.7023 20.1846C34.611 20.1467 34.5132 20.1272 34.4143 20.1272H31.3937C31.2949 20.1272 31.1971 20.1467 31.1058 20.1846C31.0145 20.2225 30.9315 20.2781 30.8616 20.3481C30.7917 20.4181 30.7363 20.5012 30.6985 20.5927C30.6607 20.6842 30.6412 20.7823 30.6412 20.8813V23.9082C30.6398 24.0081 30.6582 24.1073 30.6954 24.2C30.7326 24.2927 30.7878 24.3771 30.8578 24.4483C30.9279 24.5194 31.0113 24.5759 31.1033 24.6145C31.1953 24.653 31.294 24.6729 31.3937 24.6729ZM32.1568 21.646H33.6618V23.1541H32.1568V21.646Z" fill="#0A7EBF"/>
<path d="M48.6271 32.2348H45.6383C45.5395 32.2348 45.4416 32.2543 45.3503 32.2922C45.259 32.3301 45.1761 32.3857 45.1062 32.4557C45.0363 32.5257 44.9809 32.6089 44.9431 32.7003C44.9052 32.7918 44.8858 32.8899 44.8858 32.9889V36.0158C44.8858 36.2158 44.9651 36.4076 45.1062 36.549C45.2473 36.6904 45.4387 36.7699 45.6383 36.7699H48.6271C48.8267 36.7699 49.0181 36.6904 49.1592 36.549C49.3003 36.4076 49.3796 36.2158 49.3796 36.0158V32.9889C49.3796 32.7889 49.3003 32.5971 49.1592 32.4557C49.0181 32.3143 48.8267 32.2348 48.6271 32.2348ZM47.8746 35.2617H46.3908V33.743H47.9064L47.8746 35.2617Z" fill="#0A7EBF"/>
<path d="M48.6271 26.181H45.6383C45.4387 26.181 45.2473 26.2605 45.1062 26.4019C44.9651 26.5433 44.8858 26.7351 44.8858 26.9351V29.962C44.8858 30.061 44.9052 30.1591 44.9431 30.2506C44.9809 30.3421 45.0363 30.4252 45.1062 30.4952C45.1761 30.5652 45.259 30.6208 45.3503 30.6587C45.4416 30.6966 45.5395 30.7161 45.6383 30.7161H48.6271C48.7259 30.7161 48.8238 30.6966 48.9151 30.6587C49.0064 30.6208 49.0893 30.5652 49.1592 30.4952C49.2291 30.4252 49.2845 30.3421 49.3223 30.2506C49.3601 30.1591 49.3796 30.061 49.3796 29.962V26.9351C49.3796 26.7351 49.3003 26.5433 49.1592 26.4019C49.0181 26.2605 48.8267 26.181 48.6271 26.181ZM47.8746 29.2079H46.3908V27.6892H47.9064L47.8746 29.2079Z" fill="#0A7EBF"/>
<path d="M48.6271 20.1272H45.6383C45.5395 20.1272 45.4416 20.1467 45.3503 20.1846C45.259 20.2225 45.1761 20.2781 45.1062 20.3481C45.0363 20.4181 44.9809 20.5012 44.9431 20.5927C44.9052 20.6842 44.8858 20.7823 44.8858 20.8813V23.9082C44.8844 24.0081 44.9028 24.1073 44.94 24.2C44.9772 24.2927 45.0324 24.3771 45.1024 24.4483C45.1724 24.5194 45.2558 24.5759 45.3478 24.6145C45.4398 24.653 45.5386 24.6729 45.6383 24.6729H48.6271C48.7268 24.6729 48.8255 24.653 48.9175 24.6145C49.0095 24.5759 49.093 24.5194 49.163 24.4483C49.233 24.3771 49.2882 24.2927 49.3254 24.2C49.3626 24.1073 49.381 24.0081 49.3796 23.9082V20.8813C49.3796 20.7823 49.3601 20.6842 49.3223 20.5927C49.2845 20.5012 49.2291 20.4181 49.1592 20.3481C49.0893 20.2781 49.0064 20.2225 48.9151 20.1846C48.8238 20.1467 48.7259 20.1272 48.6271 20.1272ZM47.8746 23.1541H46.3908V21.646H47.9064L47.8746 23.1541Z" fill="#0A7EBF"/>
</svg>
