<svg width="24" height="24" viewBox="0 0 24 24" fill="none" xmlns="http://www.w3.org/2000/svg">
<path d="M13.12 17.023L8.921 14.733C8.3728 15.3191 7.66098 15.7267 6.87807 15.9029C6.09516 16.0791 5.27735 16.0157 4.53092 15.7211C3.78449 15.4264 3.14396 14.914 2.69257 14.2505C2.24118 13.587 1.99979 12.803 1.99979 12.0005C1.99979 11.198 2.24118 10.4141 2.69257 9.75058C3.14396 9.08707 3.78449 8.57467 4.53092 8.27998C5.27735 7.98529 6.09516 7.92193 6.87807 8.09813C7.66098 8.27434 8.3728 8.68196 8.921 9.26802L13.121 6.97802C12.8826 6.03409 12.9966 5.03561 13.4416 4.16972C13.8867 3.30384 14.6323 2.63 15.5387 2.27452C16.445 1.91904 17.4499 1.90633 18.365 2.23875C19.28 2.57118 20.0425 3.22594 20.5093 4.08028C20.9762 4.93463 21.1154 5.92991 20.9009 6.87957C20.6864 7.82922 20.1329 8.66806 19.3442 9.23883C18.5555 9.8096 17.5857 10.0731 16.6166 9.98001C15.6475 9.8869 14.7456 9.44353 14.08 8.73302L9.88 11.023C10.0412 11.6644 10.0412 12.3357 9.88 12.977L14.079 15.267C14.7446 14.5565 15.6465 14.1131 16.6156 14.02C17.5847 13.9269 18.5545 14.1904 19.3432 14.7612C20.1319 15.332 20.6854 16.1708 20.8999 17.1205C21.1144 18.0701 20.9752 19.0654 20.5083 19.9198C20.0415 20.7741 19.279 21.4289 18.364 21.7613C17.4489 22.0937 16.444 22.081 15.5377 21.7255C14.6313 21.37 13.8857 20.6962 13.4406 19.8303C12.9956 18.9644 12.8816 17.9659 13.12 17.022V17.023ZM6 14C6.53043 14 7.03914 13.7893 7.41421 13.4142C7.78929 13.0392 8 12.5305 8 12C8 11.4696 7.78929 10.9609 7.41421 10.5858C7.03914 10.2107 6.53043 10 6 10C5.46957 10 4.96086 10.2107 4.58579 10.5858C4.21071 10.9609 4 11.4696 4 12C4 12.5305 4.21071 13.0392 4.58579 13.4142C4.96086 13.7893 5.46957 14 6 14Z"/>
</svg>
